<?xml version="1.0" encoding="UTF-8"?><svg id="a" xmlns="http://www.w3.org/2000/svg" width="400" height="51.8592" xmlns:xlink="http://www.w3.org/1999/xlink" viewBox="0 0 400 51.8592"><defs><linearGradient id="b" x1="5.4262" y1="19.8315" x2="22.6658" y2="39.8139" gradientUnits="userSpaceOnUse"><stop offset="0" stop-color="#4cd9df"/><stop offset="1" stop-color="#00c9d2"/></linearGradient><linearGradient id="c" x1="46.8746" y1="30.169" x2="33.5529" y2="17.6309" xlink:href="#b"/><linearGradient id="d" x1="8.6785" y1="16.4977" x2="41.6829" y2="16.4977" gradientUnits="userSpaceOnUse"><stop offset="0" stop-color="#1e18cf"/><stop offset="1" stop-color="#625ddd"/></linearGradient><linearGradient id="e" x1="38.653" y1="20.7969" x2="21.8056" y2="48.6148" xlink:href="#d"/></defs><path d="M110.4098,28.1124c0,3.8516-.5997,7.2121-1.7977,10.0789-1.1987,2.8675-2.8998,5.2429-5.1035,7.1256-2.2049,1.8842-4.89,3.2965-8.0569,4.2375-3.1676.941-6.7195,1.4122-10.6566,1.4122-1.7973,0-3.8951-.0749-6.2914-.2248-2.3971-.1506-4.7503-.4593-7.0615-.9305V6.4778c2.3113-.427,4.7184-.7162,7.2223-.8664,2.5034-.1495,4.654-.2248,6.4517-.2248,3.8085,0,7.2642.4282,10.3678,1.2837,3.1024.8567,5.7666,2.2049,7.9924,4.0445,2.2247,1.8408,3.937,4.1947,5.1357,7.0615,1.198,2.8679,1.7977,6.3135,1.7977,10.3359ZM81.4571,42.2355c.4701.0431,1.0159.0753,1.637.0963.6196.0221,1.3579.0322,2.2146.0322,5.0073,0,8.7199-1.2616,11.1383-3.7876,2.4173-2.5248,3.6269-6.0123,3.6269-10.464,0-4.6645-1.1553-8.1951-3.4665-10.5925-2.3109-2.3963-5.9703-3.595-10.9776-3.595-.6851,0-1.3913.0109-2.1184.0322-.7282.0217-1.4126.0749-2.0543.1603v28.1181Z"/><path d="M130.2463,15.7222c2.8248,0,5.1781.321,7.0615.9631,1.8831.6421,3.3916,1.5628,4.5259,2.7604,1.1335,1.1987,1.9359,2.654,2.4075,4.3656.4705,1.7123.7061,3.6171.7061,5.7134v19.9009c-1.3703.3004-3.274.6533-5.7134,1.0594-2.4398.4068-5.3927.6098-8.8592.6098-2.1828,0-4.1629-.1925-5.9381-.5776-1.7767-.3851-3.3062-1.0159-4.5903-1.894-1.2837-.8766-2.2689-2.0221-2.953-3.4343-.6851-1.4126-1.0271-3.1459-1.0271-5.2002,0-1.9681.3952-3.637,1.1879-5.0073.7912-1.3692,1.8505-2.4607,3.1777-3.274,1.3261-.8125,2.8454-1.4014,4.5577-1.7655,1.7115-.363,3.4879-.5458,5.3283-.5458,1.241,0,2.3435.0543,3.3062.1607.9631.1071,1.7434.2465,2.3431.4173v-.899c0-1.6258-.4922-2.9309-1.4763-3.9157-.9852-.9841-2.6964-1.4767-5.1357-1.4767-1.6269,0-3.232.1184-4.8147.3529-1.5838.236-2.9533.5679-4.1086.9953l-1.2197-7.7036c.5555-.1704,1.2515-.3532,2.0861-.5458s1.7434-.363,2.7286-.5136c.9841-.1495,2.0221-.278,3.1133-.3851,1.0916-.1064,2.1929-.1607,3.3062-.1607ZM131.0168,43.7121c.9406,0,1.8397-.021,2.696-.0641.856-.0423,1.5407-.1064,2.0543-.1929v-7.2541c-.3851-.0854-.9627-.1704-1.7333-.2566-.7702-.0854-1.4763-.1285-2.1184-.1285-.8987,0-1.7445.0539-2.5357.1603-.7926.1075-1.4875.3109-2.0865.6098-.5997.3001-1.0702.7061-1.4122,1.2197-.3431.5136-.5136,1.1556-.5136,1.9262,0,1.4984.5023,2.5357,1.5085,3.1133,1.005.578,2.3854.8668,4.1408.8668Z"/><path d="M153.6137,17.7765c1.6261-.4701,3.7235-.9088,6.2914-1.316,2.5679-.4061,5.2642-.6098,8.0887-.6098,2.8668,0,5.2534.3753,7.1582,1.1234,1.9037.7492,3.4122,1.8086,4.5259,3.1777,1.1122,1.3703,1.9037,2.9964,2.375,4.8791.4705,1.8839.7065,3.9801.7065,6.2914v19.0667h-9.5654v-17.9114c0-3.0814-.4072-5.2639-1.2197-6.548-.8136-1.2837-2.3334-1.9258-4.5581-1.9258-.6851,0-1.4122.0318-2.1828.0963-.7702.0641-1.4553.1394-2.0543.2248v26.0642h-9.5654V17.7765Z"/><path d="M189.8205,33.5047c0-2.4394.3948-4.7394,1.1867-6.9012.7919-2.1603,1.9359-4.0442,3.4351-5.6493,1.4976-1.6048,3.3167-2.8777,5.4564-3.8194,2.1397-.941,4.5791-1.4126,7.3181-1.4126,1.7981,0,3.4448.1607,4.9432.4817s2.9533.7814,4.3663,1.38l-1.9899,7.6396c-.899-.342-1.885-.6421-2.9533-.8987-1.0714-.257-2.2686-.3855-3.5946-.3855-2.826,0-4.9342.8777-6.3247,2.6323-1.3905,1.7554-2.0858,4.0663-2.0858,6.9331,0,3.0395.6518,5.3927,1.9584,7.0619,1.3051,1.6688,3.5842,2.5034,6.8372,2.5034,1.1553,0,2.3959-.1064,3.7235-.321,1.3261-.2135,2.5458-.5555,3.6591-1.0271l1.3471,7.8325c-1.1133.4712-2.5038.8766-4.173,1.2197-1.6677.3416-3.5092.5132-5.5201.5132-3.0822,0-5.7358-.46-7.961-1.38s-4.0546-2.1719-5.4886-3.7557c-1.434-1.5827-2.4828-3.4557-3.1451-5.6171-.6638-2.1607-.9949-4.5038-.9949-7.0297Z"/><path d="M220.3143,33.7617c0-2.9953.4593-5.6175,1.38-7.8643.92-2.2468,2.1285-4.1183,3.6276-5.6171,1.4976-1.4976,3.2193-2.6319,5.1672-3.4025,1.9472-.7702,3.9483-1.1556,6.0026-1.1556,4.7926,0,8.5805,1.4666,11.3631,4.3978,2.7818,2.932,4.173,7.244,4.173,12.9356,0,.5567-.0225,1.1665-.0644,1.8295-.0435.6642-.0862,1.2519-.1281,1.7655h-21.699c.2135,1.9689,1.1335,3.5306,2.7608,4.6862,1.6258,1.1556,3.8082,1.7333,6.548,1.7333,1.7546,0,3.4763-.1603,5.168-.4814,1.6902-.321,3.0702-.7162,4.1408-1.1879l1.2834,7.7684c-.5132.2562-1.1987.5132-2.0543.7702-.8563.257-1.8086.4817-2.8567.6743-1.0489.1925-2.1727.3529-3.3699.481-1.1987.1289-2.3974.1925-3.5954.1925-3.0395,0-5.6812-.4488-7.928-1.3478s-4.1086-2.1285-5.5853-3.6913c-1.4767-1.5621-2.5682-3.4126-3.274-5.5534-.7065-2.1393-1.0594-4.4506-1.0594-6.9331ZM242.7834,30.1023c-.0435-.8125-.1828-1.6048-.4173-2.375-.236-.7705-.6001-1.4546-1.0916-2.0543-.4922-.599-1.1133-1.0916-1.8618-1.4767-.7492-.3851-1.6804-.5776-2.7923-.5776-1.0706,0-1.9906.1824-2.7608.5454-.7702.3641-1.4122.8458-1.9262,1.4445-.5132.5997-.9095,1.295-1.1875,2.0865-.2787.7923-.481,1.5947-.6098,2.4072h12.6472Z"/><path d="M260.0516,50.389V5.9002h29.7873v8.4097h-19.7728v9.3088h17.5904v8.4097h-17.5904v18.3606h-10.0145Z"/><path d="M309.7398,51.031c-2.7825-.0435-5.0398-.3431-6.7735-.899-1.7329-.5559-3.1032-1.3373-4.1086-2.3435-1.0054-1.0047-1.6909-2.2247-2.0543-3.6591-.3641-1.4336-.5454-3.0492-.5454-4.8469V2.1127l9.5657-1.5407v36.7848c0,.8567.0637,1.6269.1925,2.3109.1281.6851.3738,1.2631.738,1.7333.3634.4716.8878.8567,1.5726,1.1556.6848.3001,1.6055.4926,2.7608.578l-1.3478,7.8965Z"/><path d="M348.1287,33.4407c0,2.654-.3851,5.0825-1.1553,7.2863-.7702,2.2049-1.8835,4.0876-3.3384,5.6493-1.4549,1.5628-3.1998,2.772-5.2316,3.6276-2.0333.8556-4.3124,1.2834-6.8372,1.2834-2.4828,0-4.7402-.4278-6.7727-1.2834-2.0333-.8556-3.7774-2.0648-5.2324-3.6276-1.4549-1.5617-2.59-3.4444-3.4021-5.6493-.8136-2.2038-1.2197-4.6323-1.2197-7.2863s.4173-5.0717,1.2519-7.2541c.8346-2.1828,1.9899-4.0445,3.4665-5.5853s3.2305-2.7383,5.2639-3.595c2.0326-.8556,4.2472-1.2841,6.6446-1.2841,2.4394,0,4.6757.4285,6.7083,1.2841,2.0326.8567,3.7767,2.0543,5.2324,3.595,1.4542,1.5407,2.5892,3.4025,3.4021,5.5853.8129,2.1824,1.2197,4.6008,1.2197,7.2541ZM338.3711,33.4407c0-2.953-.5889-5.2743-1.7651-6.9653-1.1777-1.6902-2.8574-2.536-5.0398-2.536s-3.8741.8458-5.0713,2.536c-1.1987,1.6909-1.7981,4.0123-1.7981,6.9653s.5994,5.2961,1.7981,7.0297c1.1972,1.7333,2.8889,2.5997,5.0713,2.5997s3.8621-.8664,5.0398-2.5997c1.1762-1.7336,1.7651-4.0768,1.7651-7.0297Z"/><path d="M375.3162,31.0013c-.8563,3.253-1.7651,6.4839-2.7286,9.6935-.9627,3.2099-1.9801,6.442-3.0492,9.6942h-7.447c-.7724-1.7981-1.61-3.937-2.5106-6.4202-.9013-2.4813-1.8355-5.1886-2.8005-8.1205-.9657-2.9312-1.9532-6.0348-2.9623-9.3088s-1.9846-6.5802-2.9286-9.9182h10.0789c.3439,1.5407.72,3.2208,1.129,5.0395.4098,1.8194.8398,3.6913,1.2924,5.6171s.926,3.8629,1.4212,5.8096c.4945,1.9483,1.0002,3.8198,1.5179,5.6175.5552-1.8827,1.1013-3.8089,1.637-5.7778.5342-1.9681,1.0481-3.9048,1.5403-5.81.4915-1.9037.9635-3.7445,1.4122-5.5208.4495-1.7752.8451-3.4343,1.1882-4.975h6.9331c.3416,1.5407.7275,3.1998,1.1553,4.975.4278,1.7763.8766,3.6171,1.3486,5.5208.4705,1.9052.9627,3.8419,1.4767,5.81.5132,1.9689,1.0481,3.8951,1.6048,5.7778.5162-1.7977,1.0331-3.6692,1.5493-5.6175.5169-1.9468,1.0009-3.8838,1.4534-5.8096.4518-1.9258.8818-3.7977,1.2909-5.6171.4098-1.8187.7859-3.4987,1.1305-5.0395h9.9508c-.9447,3.338-1.9209,6.6442-2.9301,9.9182-1.0092,3.274-1.9959,6.3775-2.9608,9.3088-.9665,2.932-1.9097,5.6392-2.8327,8.1205-.923,2.4832-1.7704,4.6222-2.5428,6.4202h-7.447c-1.0706-3.2523-2.1187-6.4843-3.1459-9.6942-1.0271-3.2096-1.9689-6.4405-2.8245-9.6935Z"/><path d="M33.0045,32.9954c-1.484,3.2966-3.9688,6.0433-7.0702,7.8492q-.0023.0023-.0023,0c-2.5493,1.4884-5.5126,2.3396-8.6762,2.3396-2.5193,0-4.9121-.5406-7.0679-1.5114h-.0023C4.3231,39.0365.2002,33.2255.0069,26.4323c-.0046-.1657-.0069-.3336-.0069-.5015s.0023-.3359.0069-.5015c.1932-6.7932,4.3162-12.6042,10.1786-15.2405-.9686,2.1555-1.507,4.548-1.507,7.0647,0,3.1631.8513,6.1261,2.3399,8.675v.0023c1.8061,3.0987,4.5509,5.5832,7.8456,7.0647l.0023.0023c2.1558.9685,4.5486,1.5091,7.068,1.5091s4.9144-.5406,7.0702-1.5114Z" fill="url(#b)"/><path d="M51.8661,25.9308c0,.1679-.0023.3359-.0069.5015-.1933,6.7932-4.3162,12.6042-10.1763,15.2405.9686-2.1578,1.507-4.5503,1.507-7.067,0-3.1631-.8513-6.1261-2.3399-8.675v-.0023c-1.8061-3.101-4.5509-5.5855-7.8479-7.067-2.1558-.9708-4.5486-1.5091-7.0679-1.5091s-4.9121.5383-7.068,1.5091c1.4817-3.2943,3.9665-6.0387,7.0657-7.8445h.0023c2.5492-1.4884,5.5126-2.3396,8.6762-2.3396,2.5216,0,4.9144.5406,7.0725,1.5114,5.86,2.6363,9.983,8.4473,10.1763,15.2405.0046.1657.0069.3336.0069.5015Z" fill="url(#c)"/><path d="M41.6829,10.1887c-2.1581-.9708-4.5509-1.5114-7.0725-1.5114-3.1636,0-6.1269.8512-8.6762,2.3396h-.0023c-3.0991,1.8058-5.584,4.5503-7.0657,7.8445-.9709,2.1555-1.5116,4.5503-1.5116,7.0693,0,2.5167.5407,4.9092,1.5093,7.0647-3.2947-1.4815-6.0395-3.966-7.8456-7.0647v-.0023c-1.4886-2.5489-2.3399-5.5119-2.3399-8.675,0-2.5167.5384-4.9092,1.507-7.0647C12.8222,4.3249,18.6362.2001,25.4327.0069c.1657-.0046.3336-.0069.5016-.0069s.3359.0023.5016.0069c6.7965.1932,12.6105,4.3179,15.2471,10.1818Z" fill="url(#d)"/><path d="M43.1899,34.6058c0,2.5167-.5384,4.9092-1.507,7.067-2.6367,5.8616-8.4507,9.9863-15.2471,10.1795-.1657.0046-.3336.0069-.5016.0069s-.3359-.0023-.5016-.0069c-6.7965-.1932-12.6105-4.318-15.2449-10.1795,2.1558.9708,4.5486,1.5114,7.0679,1.5114,3.1636,0,6.1269-.8512,8.6762-2.3396q0,.0023.0023,0c3.1014-1.8058,5.5862-4.5526,7.0702-7.8492.9686-2.1555,1.507-4.548,1.507-7.0647,0-2.519-.5407-4.9138-1.5093-7.0693,3.297,1.4815,6.0418,3.966,7.8479,7.067v.0023c1.4886,2.5489,2.3399,5.5119,2.3399,8.675Z" fill="url(#e)"/></svg>